<svg width="500" height="500" viewBox="0 0 500 500" xmlns="http://www.w3.org/2000/svg">
    <!-- 背景 -->
    <rect width="500" height="500" fill="#F8F9FA"/>
    
    <defs>
        <!-- 坐标轴箭头 -->
        <marker id="arrow" viewBox="0 0 10 10" refX="9" refY="5" markerWidth="6" markerHeight="6" orient="auto">
            <path d="M 0 0 L 10 5 L 0 10 z" fill="#333"/>
        </marker>
    </defs>

    <!-- ==================== 坐标轴 ==================== -->
    <!-- x1 轴 -->
    <line x1="50" y1="250" x2="450" y2="250" stroke="#333" stroke-width="2" marker-end="url(#arrow)"/>
    <text x="445" y="265" font-family="sans-serif" font-size="16" font-weight="bold" fill="#333">x₁</text>
    
    <!-- x2 轴 -->
    <line x1="250" y1="50" x2="250" y2="450" stroke="#333" stroke-width="2" marker-end="url(#arrow)"/>
    <text x="260" y="55" font-family="sans-serif" font-size="16" font-weight="bold" fill="#333">x₂</text>

    <!-- 原点（中心点） -->
    <circle cx="250" cy="250" r="5" fill="#333"/>
    <text x="235" y="270" font-family="sans-serif" font-size="14" font-weight="bold" fill="#333">O</text>

    <!-- ==================== 45度旋转组 ==================== -->
    <g transform="rotate(45, 250, 250)">
        
        <!-- 1. 理论椭圆等高线（虚线） -->
        <ellipse cx="250" cy="250" rx="120" ry="50" fill="none" stroke="#4A90E2" stroke-width="2" stroke-dasharray="6,4"/>
        
        <!-- 2. 主成分方向（长轴，红色） -->
        <line x1="130" y1="250" x2="370" y2="250" stroke="#D32F2F" stroke-width="2.5"/>
        
        <!-- 3. 次成分方向（短轴，灰色） -->
        <line x1="250" y1="200" x2="250" y2="300" stroke="#2C3E50" stroke-width="2"/>

        <!-- 4. 随机采样点（椭圆分布） -->
        <!-- 中心点 -->
        <circle cx="250" cy="250" r="4" fill="#1E88E5" fill-opacity="0.7"/>
        
        <!-- 主要散布点 -->
        <circle cx="280" cy="245" r="4" fill="#1E88E5" fill-opacity="0.7"/>
        <circle cx="220" cy="255" r="4" fill="#1E88E5" fill-opacity="0.7"/>
        <circle cx="310" cy="240" r="4" fill="#1E88E5" fill-opacity="0.7"/>
        <circle cx="190" cy="260" r="4" fill="#1E88E5" fill-opacity="0.7"/>
        <circle cx="330" cy="235" r="4" fill="#1E88E5" fill-opacity="0.7"/>
        <circle cx="170" cy="265" r="4" fill="#1E88E5" fill-opacity="0.7"/>
        <circle cx="290" cy="230" r="4" fill="#1E88E5" fill-opacity="0.7"/>
        <circle cx="210" cy="270" r="4" fill="#1E88E5" fill-opacity="0.7"/>
        <circle cx="260" cy="230" r="4" fill="#1E88E5" fill-opacity="0.7"/>
        <circle cx="240" cy="270" r="4" fill="#1E88E5" fill-opacity="0.7"/>
        <circle cx="300" cy="220" r="4" fill="#1E88E5" fill-opacity="0.7"/>
        <circle cx="200" cy="280" r="4" fill="#1E88E5" fill-opacity="0.7"/>
        <circle cx="270" cy="260" r="4" fill="#1E88E5" fill-opacity="0.7"/>
        <circle cx="230" cy="240" r="4" fill="#1E88E5" fill-opacity="0.7"/>
        <circle cx="320" cy="225" r="4" fill="#1E88E5" fill-opacity="0.7"/>
        <circle cx="180" cy="275" r="4" fill="#1E88E5" fill-opacity="0.7"/>
        <circle cx="250" cy="280" r="4" fill="#1E88E5" fill-opacity="0.7"/>
        <circle cx="250" cy="220" r="4" fill="#1E88E5" fill-opacity="0.7"/>
        <circle cx="280" cy="255" r="4" fill="#1E88E5" fill-opacity="0.7"/>
        <circle cx="220" cy="245" r="4" fill="#1E88E5" fill-opacity="0.7"/>
        <circle cx="310" cy="250" r="4" fill="#1E88E5" fill-opacity="0.7"/>
        <circle cx="190" cy="250" r="4" fill="#1E88E5" fill-opacity="0.7"/>
        <circle cx="290" cy="240" r="4" fill="#1E88E5" fill-opacity="0.7"/>
        <circle cx="210" cy="260" r="4" fill="#1E88E5" fill-opacity="0.7"/>
        <circle cx="330" cy="245" r="4" fill="#1E88E5" fill-opacity="0.7"/>
        <circle cx="170" cy="255" r="4" fill="#1E88E5" fill-opacity="0.7"/>
        <circle cx="260" cy="250" r="4" fill="#1E88E5" fill-opacity="0.7"/>
        <circle cx="240" cy="250" r="4" fill="#1E88E5" fill-opacity="0.7"/>
        <circle cx="300" cy="230" r="4" fill="#1E88E5" fill-opacity="0.7"/>
        <circle cx="200" cy="270" r="4" fill="#1E88E5" fill-opacity="0.7"/>
        <circle cx="270" cy="240" r="4" fill="#1E88E5" fill-opacity="0.7"/>
        <circle cx="230" cy="260" r="4" fill="#1E88E5" fill-opacity="0.7"/>
        <circle cx="315" cy="230" r="4" fill="#1E88E5" fill-opacity="0.7"/>
        <circle cx="185" cy="270" r="4" fill="#1E88E5" fill-opacity="0.7"/>
        <circle cx="285" cy="250" r="4" fill="#1E88E5" fill-opacity="0.7"/>
        <circle cx="215" cy="250" r="4" fill="#1E88E5" fill-opacity="0.7"/>
        <circle cx="265" cy="220" r="4" fill="#1E88E5" fill-opacity="0.7"/>
        <circle cx="235" cy="280" r="4" fill="#1E88E5" fill-opacity="0.7"/>
        <circle cx="295" cy="255" r="4" fill="#1E88E5" fill-opacity="0.7"/>
        <circle cx="205" cy="245" r="4" fill="#1E88E5" fill-opacity="0.7"/>
        <circle cx="275" cy="225" r="4" fill="#1E88E5" fill-opacity="0.7"/>
        <circle cx="225" cy="275" r="4" fill="#1E88E5" fill-opacity="0.7"/>
        <circle cx="305" cy="225" r="4" fill="#1E88E5" fill-opacity="0.7"/>
        <circle cx="195" cy="275" r="4" fill="#1E88E5" fill-opacity="0.7"/>
        <circle cx="260" cy="275" r="4" fill="#1E88E5" fill-opacity="0.7"/>
        <circle cx="240" cy="225" r="4" fill="#1E88E5" fill-opacity="0.7"/>
        <circle cx="280" cy="265" r="4" fill="#1E88E5" fill-opacity="0.7"/>
        <circle cx="220" cy="235" r="4" fill="#1E88E5" fill-opacity="0.7"/>
        
        <!-- 添加一些离群点，使其更真实 -->
        <circle cx="340" cy="225" r="4" fill="#1E88E5" fill-opacity="0.7"/>
        <circle cx="160" cy="275" r="4" fill="#1E88E5" fill-opacity="0.7"/>
        <circle cx="270" cy="210" r="4" fill="#1E88E5" fill-opacity="0.7"/>
        <circle cx="230" cy="290" r="4" fill="#1E88E5" fill-opacity="0.7"/>

    </g>

    <!-- ==================== 图例 ==================== -->
    <g transform="translate(320, 400)">
        <rect x="0" y="0" width="150" height="95" fill="white" stroke="#BDC3C7" stroke-width="1.5" rx="5"/>
        
        <!-- 椭圆 -->
        <line x1="15" y1="20" x2="35" y2="20" stroke="#4A90E2" stroke-width="2" stroke-dasharray="6,4"/>
        <text x="45" y="24" font-family="sans-serif" font-size="12" fill="#333">椭圆等高线</text>
        
        <!-- 主成分 -->
        <line x1="15" y1="40" x2="35" y2="40" stroke="#D32F2F" stroke-width="2.5"/>
        <text x="45" y="44" font-family="sans-serif" font-size="12" fill="#333">主成分方向</text>
        
        <!-- 次成分 -->
        <line x1="15" y1="60" x2="35" y2="60" stroke="#2C3E50" stroke-width="2"/>
        <text x="45" y="64" font-family="sans-serif" font-size="12" fill="#333">次成分方向</text>

        <!-- 采样点 -->
        <circle cx="25" cy="80" r="4" fill="#1E88E5" fill-opacity="0.7"/>
        <text x="45" y="84" font-family="sans-serif" font-size="12" fill="#333">随机采样点</text>
    </g>

</svg>